<svg width="256" height="275" viewBox="0 0 256 275" fill="none" xmlns="http://www.w3.org/2000/svg">
<g style="mix-blend-mode:screen">
<path d="M36.629 35.1859C31.5933 39.7005 26.8226 44.7463 22.5821 49.7921C26.5576 44.7463 31.3282 39.7005 36.629 35.1859ZM206.782 79.8013C187.434 70.2408 167.027 65.7262 144.498 67.3196C120.645 68.913 102.888 81.6603 103.418 97.3288C104.743 132.915 151.654 110.607 177.893 144.069C206.782 178.327 177.363 244.453 87.7808 234.096C55.1814 230.378 26.8226 217.1 6.41489 195.589C5.61979 194.792 4.29461 195.589 4.82468 196.651C26.2926 249.765 117.995 306.331 201.216 252.686C278.872 202.494 267.74 112.201 206.782 79.8013ZM49.0856 194.527C68.4332 204.087 88.841 208.602 111.369 207.008C135.222 205.415 152.98 192.668 152.45 176.999C151.124 141.413 104.213 163.721 77.9745 130.259C49.3507 96.0009 78.7696 29.8745 168.352 40.2316C200.951 43.9496 229.31 57.228 249.718 78.739C250.513 79.5357 251.838 78.739 251.308 77.6767C229.84 24.5631 138.138 -32.0029 54.9164 21.6419C-23.0041 71.5687 -11.6075 161.862 49.0856 194.527Z" fill="#202021"/>
</g>
</svg>
