<svg width="25" height="24" viewBox="0 0 25 24" fill="none" xmlns="http://www.w3.org/2000/svg">
<path fill-rule="evenodd" clip-rule="evenodd" d="M12.8085 0C9.54947 0 9.14081 0.013814 7.86089 0.0722135C6.58363 0.13047 5.7113 0.333344 4.94802 0.630009C4.15891 0.936629 3.4897 1.34695 2.82254 2.01406C2.15542 2.68123 1.7451 3.35044 1.43848 4.13954C1.14182 4.90283 0.938941 5.77516 0.880685 7.05242C0.822286 8.33234 0.808472 8.741 0.808472 12C0.808472 15.259 0.822286 15.6677 0.880685 16.9476C0.938941 18.2248 1.14182 19.0972 1.43848 19.8605C1.7451 20.6496 2.15542 21.3188 2.82254 21.9859C3.4897 22.6531 4.15891 23.0634 4.94802 23.37C5.7113 23.6667 6.58363 23.8695 7.86089 23.9278C9.14081 23.9862 9.54947 24 12.8085 24C16.0675 24 16.4761 23.9862 17.7561 23.9278C19.0333 23.8695 19.9056 23.6667 20.6689 23.37C21.458 23.0634 22.1272 22.6531 22.7944 21.9859C23.4615 21.3188 23.8718 20.6496 24.1785 19.8605C24.4751 19.0972 24.678 18.2248 24.7363 16.9476C24.7947 15.6677 24.8085 15.259 24.8085 12C24.8085 8.741 24.7947 8.33234 24.7363 7.05242C24.678 5.77516 24.4751 4.90283 24.1785 4.13954C23.8718 3.35044 23.4615 2.68123 22.7944 2.01406C22.1272 1.34695 21.458 0.936629 20.6689 0.630009C19.9056 0.333344 19.0333 0.13047 17.7561 0.0722135C16.4761 0.013814 16.0675 0 12.8085 0ZM12.8085 2.16211C16.0126 2.16211 16.3922 2.17435 17.6575 2.23208C18.8275 2.28543 19.4629 2.48092 19.8857 2.64526C20.4459 2.86295 20.8456 3.12298 21.2655 3.54293C21.6854 3.96282 21.9455 4.36257 22.1632 4.92269C22.3275 5.34554 22.523 5.98093 22.5763 7.15092C22.6341 8.41627 22.6463 8.79582 22.6463 12C22.6463 15.2041 22.6341 15.5836 22.5763 16.849C22.523 18.019 22.3275 18.6544 22.1632 19.0772C21.9455 19.6373 21.6854 20.0371 21.2655 20.457C20.8456 20.8769 20.4459 21.137 19.8857 21.3546C19.4629 21.519 18.8275 21.7145 17.6575 21.7678C16.3923 21.8256 16.0128 21.8378 12.8085 21.8378C9.60411 21.8378 9.22466 21.8256 7.95945 21.7678C6.78946 21.7145 6.15407 21.519 5.73122 21.3546C5.17109 21.137 4.77135 20.8769 4.35146 20.457C3.93156 20.0371 3.67148 19.6373 3.45379 19.0772C3.28945 18.6544 3.09396 18.019 3.04061 16.849C2.98288 15.5836 2.97064 15.2041 2.97064 12C2.97064 8.79582 2.98288 8.41627 3.04061 7.15092C3.09396 5.98093 3.28945 5.34554 3.45379 4.92269C3.67148 4.36257 3.93151 3.96282 4.35146 3.54293C4.77135 3.12298 5.17109 2.86295 5.73122 2.64526C6.15407 2.48092 6.78946 2.28543 7.95945 2.23208C9.2248 2.17435 9.60435 2.16211 12.8085 2.16211ZM6.64633 12C6.64633 8.59669 9.4052 5.83782 12.8085 5.83782C16.2118 5.83782 18.9706 8.59669 18.9706 12C18.9706 15.4033 16.2118 18.1621 12.8085 18.1621C9.4052 18.1621 6.64633 15.4033 6.64633 12ZM12.8085 15.9999C10.5993 15.9999 8.80849 14.2091 8.80849 12C8.80849 9.79078 10.5993 7.99993 12.8085 7.99993C15.0176 7.99993 16.8085 9.79078 16.8085 12C16.8085 14.2091 15.0176 15.9999 12.8085 15.9999ZM19.2141 7.0343C20.0094 7.0343 20.6541 6.38962 20.6541 5.59432C20.6541 4.79902 20.0094 4.1543 19.2141 4.1543C18.4188 4.1543 17.7741 4.79902 17.7741 5.59432C17.7741 6.38962 18.4188 7.0343 19.2141 7.0343Z" fill="#323234"/>
</svg>
