<svg width="23" height="20" viewBox="0 0 23 20" fill="none" xmlns="http://www.w3.org/2000/svg">
<path fill-rule="evenodd" clip-rule="evenodd" d="M3.39808 4.71403H3.36703C1.81482 4.71403 0.808472 3.67542 0.808472 2.35891C0.808472 1.01678 1.84457 -6.10352e-05 3.42783 -6.10352e-05C5.00979 -6.10352e-05 5.98251 1.01422 6.01355 2.35506C6.01355 3.67158 5.00979 4.71403 3.39808 4.71403ZM22.8085 19.9997H17.9462V12.9689C17.9462 11.1286 17.1856 9.87226 15.5131 9.87226C14.2338 9.87226 13.5224 10.7201 13.1912 11.5371C13.0819 11.7953 13.0839 12.1429 13.0859 12.5011C13.0862 12.5498 13.0865 12.5986 13.0865 12.6474V19.9997H8.26943C8.26943 19.9997 8.33152 7.54531 8.26943 6.41321H13.0865V8.5455C13.371 7.61318 14.9103 6.28258 17.3667 6.28258C20.4142 6.28258 22.8085 8.23687 22.8085 12.4451V19.9997ZM5.65137 6.41316H1.36339V19.9996H5.65137V6.41316Z" fill="#323234"/>
</svg>
