<svg width="48" height="51" viewBox="0 0 48 51" fill="none" xmlns="http://www.w3.org/2000/svg">
<path d="M6.85047 6.5369C5.90868 7.37564 5.01646 8.31306 4.22338 9.25048C4.96689 8.31306 5.85912 7.37564 6.85047 6.5369ZM38.673 14.8256C35.0546 13.0495 31.2379 12.2107 27.0246 12.5068C22.5635 12.8028 19.2424 15.171 19.3416 18.0819C19.5894 24.6932 28.3629 20.5488 33.2701 26.7654C38.673 33.13 33.171 45.4151 16.4171 43.4909C10.3202 42.8002 5.01646 40.3333 1.19974 36.3369C1.05103 36.1889 0.803192 36.3369 0.902328 36.5343C4.91733 46.4018 22.0678 56.9108 37.6321 46.9445C52.1555 37.6197 50.0737 20.8449 38.673 14.8256ZM9.18016 36.1396C12.7986 37.9157 16.6153 38.7545 20.8286 38.4584C25.2897 38.1624 28.6108 35.7942 28.5116 32.8833C28.2638 26.272 19.4903 30.4164 14.5831 24.1998C9.22973 17.8352 14.7318 5.55014 31.4857 7.47432C37.5826 8.16505 42.8863 10.6319 46.703 14.6283C46.8517 14.7763 47.0996 14.6283 47.0005 14.4309C42.9855 4.56339 25.835 -5.94556 10.2707 4.02067C-4.3023 13.2962 -2.17088 30.071 9.18016 36.1396Z" fill="url(#paint0_linear_0_588)"/>
<defs>
<linearGradient id="paint0_linear_0_588" x1="23.939" y1="0" x2="23.939" y2="50.9652" gradientUnits="userSpaceOnUse">
<stop stop-color="#A2F71D"/>
<stop offset="1" stop-color="#43E849"/>
</linearGradient>
</defs>
</svg>
