<svg width="288" height="51" viewBox="0 0 288 51" fill="none" xmlns="http://www.w3.org/2000/svg">
<path d="M6.85047 6.5369C5.90868 7.37564 5.01646 8.31306 4.22338 9.25048C4.96689 8.31306 5.85912 7.37564 6.85047 6.5369ZM38.673 14.8256C35.0546 13.0495 31.2379 12.2107 27.0246 12.5068C22.5635 12.8028 19.2424 15.171 19.3416 18.0819C19.5894 24.6932 28.3629 20.5488 33.2701 26.7654C38.673 33.13 33.171 45.4151 16.4171 43.4909C10.3202 42.8002 5.01646 40.3333 1.19974 36.3369C1.05103 36.1889 0.803192 36.3369 0.902328 36.5343C4.91733 46.4018 22.0678 56.9108 37.6321 46.9445C52.1555 37.6197 50.0737 20.8449 38.673 14.8256ZM9.18016 36.1396C12.7986 37.9157 16.6153 38.7545 20.8286 38.4584C25.2897 38.1624 28.6108 35.7942 28.5116 32.8833C28.2638 26.272 19.4903 30.4164 14.5831 24.1998C9.22973 17.8352 14.7318 5.55014 31.4857 7.47432C37.5826 8.16505 42.8863 10.6319 46.703 14.6283C46.8517 14.7763 47.0996 14.6283 47.0005 14.4309C42.9855 4.56339 25.835 -5.94556 10.2707 4.02067C-4.3023 13.2962 -2.17088 30.071 9.18016 36.1396Z" fill="url(#paint0_linear_0_390)"/>
<path d="M81.0044 14.6952C82.6897 14.6952 84.5733 14.8925 86.6056 15.3859V17.9021C85.069 17.4581 83.0367 17.0634 81.401 17.0634C76.8903 17.0634 73.9162 19.4316 73.9162 25.8455C73.9162 32.4568 77.1877 34.825 81.2523 34.825C82.9376 34.825 84.9203 34.4796 86.7047 33.8876V36.3545C84.7716 36.9465 82.6402 37.1932 81.054 37.1932C74.2632 37.1932 71.19 32.8515 71.19 25.8949C71.19 19.0863 74.4119 14.6952 81.0044 14.6952Z" fill="white"/>
<path d="M101.179 27.2762V25.5C101.179 23.6252 100.138 22.3424 97.2627 22.3424C95.8252 22.3424 93.5947 22.6384 91.8102 23.0825V20.8129C93.6938 20.3689 96.1722 20.1222 97.808 20.1222C101.526 20.1222 103.756 21.9477 103.756 25.648V36.8477H101.526L101.327 34.7755C99.3941 36.1076 97.461 36.9957 95.4783 36.9957C92.752 36.9957 90.3728 35.5649 90.3728 32.2099C90.3728 28.9537 92.7025 27.2268 96.2218 27.2268H101.179V27.2762ZM101.179 29.2003H96.5688C94.1895 29.2003 93.0494 30.2364 93.0494 32.0619C93.0494 33.9861 94.3382 34.9235 96.2713 34.9235C97.9071 34.9235 99.8898 33.9861 101.179 32.95V29.2003Z" fill="white"/>
<path d="M118.329 23.0827C115.999 23.4281 114.265 24.3655 111.836 25.6483V36.848H109.258V20.5172H111.737V23.4281C113.67 22.1946 115.603 20.6158 118.28 20.3691V23.0827H118.329Z" fill="white"/>
<path d="M131.613 20.5168V22.737H126.359V32.9993C126.359 34.4301 127.35 34.8741 128.49 34.8741C129.333 34.8741 130.275 34.6767 131.018 34.4301V36.6996C129.878 36.8969 128.441 37.1436 127.301 37.1436C125.368 37.1436 123.781 36.5022 123.781 33.5913V22.737H121.452V21.1089L121.997 20.5168H123.781V18.5433L125.318 16.9645H126.359V20.5661H131.613V20.5168Z" fill="white"/>
<path d="M148.516 36.157C146.434 36.8477 144.65 37.1931 142.32 37.1931C137.115 37.1931 134.34 34.6275 134.34 28.6083C134.34 23.0825 136.967 20.1222 141.923 20.1222C147.673 20.1222 148.863 24.0692 148.863 28.1149V29.3484H137.016C137.066 33.3447 139.197 34.8742 142.865 34.8742C144.6 34.8742 146.781 34.4301 148.516 33.8381V36.157ZM146.186 27.4242C146.186 25.056 145.591 22.2437 141.775 22.2437C138.503 22.2437 136.967 24.4639 136.967 27.4242H146.186Z" fill="white"/>
<path d="M162.791 23.0827C160.462 23.4281 158.727 24.3655 156.298 25.6483V36.848H153.72V20.5172H156.199V23.4281C158.132 22.1946 160.065 20.6158 162.742 20.3691V23.0827H162.791Z" fill="white"/>
<path d="M171.069 20.221H170.871V36.8478H166.658V15.0898H173.746L178.653 31.9634H178.802L183.659 15.0898H190.599V36.8478H186.386V20.221H186.138L181.082 36.8971H175.976L171.069 20.221Z" fill="white"/>
<path d="M204.974 26.7337V25.6482C204.974 24.3161 204.131 23.428 201.504 23.428C200.116 23.428 197.687 23.7241 196.101 24.1681V20.6158C198.183 20.1717 200.76 19.925 202.594 19.925C206.758 19.925 209.336 21.8986 209.336 25.9443V36.8479H205.668L205.37 35.1211H205.271C203.487 36.4039 201.702 37.0946 199.967 37.0946C197.092 37.0946 194.763 35.3184 194.763 31.8154C194.763 28.7072 197.043 26.7337 201.107 26.7337H204.974ZM204.974 29.5459H201.752C199.868 29.5459 199.025 30.2366 199.025 31.4701C199.025 32.8515 200.017 33.5423 201.355 33.5423C202.644 33.5423 204.032 33.0489 205.023 32.4075V29.5459H204.974Z" fill="white"/>
<path d="M221.728 19.9252C222.57 19.9252 223.512 20.0238 224.454 20.1225V13.7579H228.717V36.848H225.197C225.148 36.7493 224.85 35.8613 224.801 35.7626C223.215 36.6507 221.529 37.144 219.794 37.144C216.374 37.144 213.152 34.9732 213.152 29.0033C213.202 22.0467 216.919 19.9252 221.728 19.9252ZM220.835 33.5424C221.876 33.5424 223.115 33.1477 224.404 32.5063V23.6748C223.562 23.5268 222.868 23.4775 222.174 23.4775C219.001 23.4775 217.564 25.0069 217.564 28.806C217.564 32.0623 218.803 33.5424 220.835 33.5424Z" fill="white"/>
<path d="M241.257 19.9252C242.1 19.9252 243.042 20.0238 243.984 20.1225V13.7579H248.246V36.848H244.727C244.678 36.7493 244.38 35.8613 244.331 35.7626C242.744 36.6507 241.059 37.144 239.324 37.144C235.904 37.144 232.682 34.9732 232.682 29.0033C232.732 22.0467 236.449 19.9252 241.257 19.9252ZM240.365 33.5424C241.406 33.5424 242.645 33.1477 243.934 32.5063V23.6748C243.091 23.5268 242.397 23.4775 241.704 23.4775C238.531 23.4775 237.094 25.0069 237.094 28.806C237.094 32.0623 238.333 33.5424 240.365 33.5424Z" fill="white"/>
<path d="M260.589 37.1933C255.83 37.1933 252.162 34.5784 252.162 28.5592C252.162 22.54 255.88 19.925 260.589 19.925C265.347 19.925 269.065 22.6386 269.065 28.5592C269.065 34.529 265.397 37.1933 260.589 37.1933ZM260.638 23.576C257.763 23.576 256.524 25.4015 256.524 28.5592C256.524 31.7661 257.763 33.5916 260.638 33.5916C263.513 33.5916 264.703 31.7661 264.703 28.5592C264.703 25.4015 263.513 23.576 260.638 23.576Z" fill="white"/>
<path d="M270.601 20.2705H275.955L279.375 25.1549L282.696 20.2705H288L282.002 28.3126L288 36.848H282.845L279.226 31.5689L275.657 36.848H270.502L276.5 28.5099L270.601 20.2705Z" fill="white"/>
<defs>
<linearGradient id="paint0_linear_0_390" x1="34.7558" y1="48.5481" x2="13.2977" y2="2.31634" gradientUnits="userSpaceOnUse">
<stop stop-color="#0AD3FF"/>
<stop offset="1" stop-color="#6FA0FF"/>
</linearGradient>
</defs>
</svg>
