<svg width="200" height="37" viewBox="0 0 200 37" fill="none" xmlns="http://www.w3.org/2000/svg">
<path d="M4.75728 5.48844C4.10326 6.06961 3.48366 6.71915 2.9329 7.36869C3.44924 6.71915 4.06883 6.06961 4.75728 5.48844ZM26.8563 11.2318C24.3435 10.001 21.693 9.41987 18.7671 9.62499C15.6691 9.83011 13.3628 11.4711 13.4317 13.4881C13.6038 18.069 19.6965 15.1974 23.1043 19.5049C26.8563 23.9149 23.0354 32.4273 11.4008 31.0941C7.16683 30.6154 3.48366 28.9061 0.833151 26.137C0.729884 26.0345 0.557773 26.137 0.626617 26.2738C3.41481 33.111 15.3249 40.3928 26.1334 33.4871C36.2191 27.0259 34.7734 15.4025 26.8563 11.2318ZM6.37512 26.0003C8.88794 27.231 11.5384 27.8122 14.4643 27.607C17.5623 27.4019 19.8686 25.761 19.7998 23.744C19.6277 19.163 13.5349 22.0347 10.1271 17.7272C6.40954 13.3171 10.2304 4.80471 21.8651 6.13798C26.099 6.61659 29.7822 8.32591 32.4327 11.095C32.536 11.1976 32.7081 11.095 32.6392 10.9583C29.851 4.12098 17.941 -3.16072 7.13241 3.74493C-2.98771 10.172 -1.50756 21.7954 6.37512 26.0003Z" fill="url(#paint0_linear_664_1559)"/>
<path d="M56.2531 11.1299C57.4234 11.1299 58.7315 11.2666 60.1428 11.6085V13.352C59.0757 13.0443 57.6644 12.7708 56.5285 12.7708C53.396 12.7708 51.3307 14.4118 51.3307 18.856C51.3307 23.437 53.6026 25.078 56.4252 25.078C57.5955 25.078 58.9724 24.8386 60.2116 24.4284V26.1377C58.8692 26.548 57.389 26.7189 56.2875 26.7189C51.5717 26.7189 49.4375 23.7105 49.4375 18.8902C49.4375 14.1725 51.6749 11.1299 56.2531 11.1299Z" fill="white"/>
<path d="M70.2629 19.8467V18.616C70.2629 17.3169 69.5401 16.428 67.5436 16.428C66.5453 16.428 64.9964 16.6332 63.7572 16.9408V15.3683C65.0652 15.0606 66.7863 14.8896 67.9222 14.8896C70.5039 14.8896 72.0529 16.1545 72.0529 18.7185V26.4788H70.5039L70.3662 25.043C69.0237 25.966 67.6813 26.5814 66.3044 26.5814C64.4112 26.5814 62.7589 25.59 62.7589 23.2653C62.7589 21.009 64.3768 19.8125 66.8207 19.8125H70.2629V19.8467ZM70.2629 21.1799H67.0617C65.4094 21.1799 64.6177 21.8979 64.6177 23.1627C64.6177 24.496 65.5127 25.1456 66.8551 25.1456C67.9911 25.1456 69.368 24.496 70.2629 23.7781V21.1799Z" fill="white"/>
<path d="M82.173 16.9408C80.5552 17.1801 79.3504 17.8296 77.6637 18.7185V26.4788H75.8738V15.1631H77.5949V17.1801C78.9374 16.3254 80.2798 15.2315 82.1386 15.0605V16.9408H82.173Z" fill="white"/>
<path d="M91.3981 15.1636V16.702H87.7493V23.8127C87.7493 24.8041 88.4378 25.1118 89.2295 25.1118C89.8147 25.1118 90.4687 24.9751 90.985 24.8041V26.3767C90.1933 26.5135 89.1951 26.6844 88.4034 26.6844C87.0609 26.6844 85.9594 26.24 85.9594 24.223V16.702H84.3416V15.5738L84.7202 15.1636H85.9594V13.7961L87.0265 12.7021H87.7493V15.1978H91.3981V15.1636Z" fill="white"/>
<path d="M103.136 26.0002C101.69 26.4788 100.451 26.7181 98.8334 26.7181C95.219 26.7181 93.2914 24.9405 93.2914 20.7697C93.2914 16.9408 95.1158 14.8896 98.558 14.8896C102.551 14.8896 103.377 17.6246 103.377 20.4278V21.2825H95.1502C95.1846 24.0516 96.6648 25.1114 99.212 25.1114C100.417 25.1114 101.931 24.8037 103.136 24.3935V26.0002ZM101.518 19.9492C101.518 18.3083 101.105 16.3597 98.4547 16.3597C96.1828 16.3597 95.1158 17.8981 95.1158 19.9492H101.518Z" fill="white"/>
<path d="M113.05 16.9408C111.432 17.1801 110.227 17.8296 108.54 18.7185V26.4788H106.75V15.1631H108.471V17.1801C109.814 16.3254 111.156 15.2315 113.015 15.0605V16.9408H113.05Z" fill="white"/>
<path d="M118.798 14.9587H118.661V26.4795H115.735V11.4033H120.657L124.065 23.0951H124.168L127.541 11.4033H132.361V26.4795H129.435V14.9587H129.263L125.751 26.5137H122.206L118.798 14.9587Z" fill="white"/>
<path d="M142.343 19.4707V18.7186C142.343 17.7955 141.758 17.1802 139.933 17.1802C138.97 17.1802 137.283 17.3853 136.181 17.693V15.2315C137.627 14.9239 139.417 14.7529 140.691 14.7529C143.582 14.7529 145.372 16.1204 145.372 18.9237V26.4789H142.825L142.618 25.2824H142.549C141.31 26.1712 140.071 26.6498 138.866 26.6498C136.87 26.6498 135.252 25.4191 135.252 22.9919C135.252 20.8381 136.835 19.4707 139.658 19.4707H142.343ZM142.343 21.4193H140.105C138.797 21.4193 138.212 21.8979 138.212 22.7526C138.212 23.7098 138.901 24.1884 139.83 24.1884C140.725 24.1884 141.689 23.8465 142.377 23.4021V21.4193H142.343Z" fill="white"/>
<path d="M153.978 14.7538C154.563 14.7538 155.217 14.8221 155.871 14.8905V10.4805H158.831V26.4797H156.387C156.353 26.4114 156.146 25.796 156.112 25.7276C155.01 26.343 153.84 26.6848 152.635 26.6848C150.26 26.6848 148.023 25.1806 148.023 21.0441C148.057 16.2238 150.639 14.7538 153.978 14.7538ZM153.358 24.1892C154.081 24.1892 154.941 23.9157 155.836 23.4713V17.3519C155.251 17.2494 154.769 17.2152 154.287 17.2152C152.084 17.2152 151.086 18.275 151.086 20.9073C151.086 23.1636 151.947 24.1892 153.358 24.1892Z" fill="white"/>
<path d="M167.54 14.7538C168.125 14.7538 168.779 14.8221 169.433 14.8905V10.4805H172.394V26.4797H169.95C169.915 26.4114 169.709 25.796 169.674 25.7276C168.573 26.343 167.402 26.6848 166.198 26.6848C163.822 26.6848 161.585 25.1806 161.585 21.0441C161.619 16.2238 164.201 14.7538 167.54 14.7538ZM166.92 24.1892C167.643 24.1892 168.504 23.9157 169.399 23.4713V17.3519C168.814 17.2494 168.332 17.2152 167.85 17.2152C165.647 17.2152 164.649 18.275 164.649 20.9073C164.649 23.1636 165.509 24.1892 166.92 24.1892Z" fill="white"/>
<path d="M180.965 26.7182C177.66 26.7182 175.113 24.9063 175.113 20.7356C175.113 16.5648 177.695 14.7529 180.965 14.7529C184.269 14.7529 186.851 16.6332 186.851 20.7356C186.851 24.8721 184.304 26.7182 180.965 26.7182ZM180.999 17.2827C179.003 17.2827 178.142 18.5476 178.142 20.7356C178.142 22.9577 179.003 24.2226 180.999 24.2226C182.996 24.2226 183.822 22.9577 183.822 20.7356C183.822 18.5476 182.996 17.2827 180.999 17.2827Z" fill="white"/>
<path d="M187.918 14.9922H191.635L194.011 18.3766L196.317 14.9922H200L195.835 20.5646L200 26.4788H196.42L193.907 22.8209L191.429 26.4788H187.849L192.014 20.7013L187.918 14.9922Z" fill="white"/>
<defs>
<linearGradient id="paint0_linear_664_1559" x1="16.6243" y1="0.958984" x2="16.6243" y2="36.273" gradientUnits="userSpaceOnUse">
<stop stop-color="#A2F71D"/>
<stop offset="1" stop-color="#43E849"/>
</linearGradient>
</defs>
</svg>
