<svg width="26" height="19" viewBox="0 0 26 19" fill="none" xmlns="http://www.w3.org/2000/svg">
<path d="M12.9914 0C16.4192 0 19.8299 0 23.2577 0C24.8688 0 26 1.12865 26 2.73612C26 7.09682 26 11.4575 26 15.8353C26 17.4428 24.8688 18.5714 23.2577 18.5714C16.4192 18.5714 9.58075 18.5714 2.75939 18.5714C1.14832 18.5714 0.0171391 17.4428 0.0171391 15.8353C0 11.4575 0 7.09682 0 2.71902C0 1.12865 1.13118 0 2.72512 0C6.15293 0 9.56361 0 12.9914 0ZM13.0086 1.36806C9.59789 1.36806 6.18721 1.36806 2.75939 1.36806C1.8853 1.36806 1.37113 1.88108 1.37113 2.77032C1.37113 7.11392 1.37113 11.4404 1.37113 15.784C1.37113 16.6903 1.86816 17.2034 2.79367 17.2034C9.61503 17.2034 16.4193 17.2034 23.2406 17.2034C24.1318 17.2034 24.646 16.6903 24.646 15.8011C24.646 11.4575 24.6289 7.13102 24.646 2.78742C24.646 1.91529 24.029 1.35096 23.2063 1.35096C19.8128 1.38516 16.4021 1.36806 13.0086 1.36806Z" fill="white"/>
<path d="M15.3052 10.7904C13.7798 11.748 12.2544 11.748 10.7119 10.7904C10.3177 11.0982 9.92352 11.406 9.51218 11.7138C7.55832 13.2529 5.60447 14.7748 3.65061 16.3139C3.29069 16.5875 2.87935 16.5704 2.62227 16.2455C2.36518 15.9206 2.43374 15.5102 2.79366 15.2195C5.0046 13.4923 7.23268 11.748 9.44362 10.0208C9.51218 9.96953 9.58074 9.91822 9.66643 9.83272C9.23796 9.4394 8.80948 9.04608 8.39814 8.66987C6.51284 6.94269 4.6104 5.21551 2.7251 3.48834C2.4166 3.19762 2.38232 2.78721 2.63941 2.49649C2.91363 2.18868 3.32497 2.17158 3.65061 2.46229C5.41594 4.10396 7.1984 5.72854 8.98087 7.37021C9.73499 8.05424 10.4891 8.72117 11.2261 9.4223C12.1687 10.3286 13.7627 10.3799 14.8424 9.3881C17.3276 7.0795 19.8299 4.8051 22.3322 2.53069C22.6064 2.27418 22.8807 2.23998 23.1549 2.37679C23.3948 2.49649 23.5662 2.7701 23.5148 3.06082C23.4805 3.21472 23.412 3.40283 23.292 3.50544C21.1325 5.45492 18.973 7.43861 16.7963 9.4223C16.642 9.55911 16.4878 9.69591 16.3335 9.84982C16.7963 10.2089 17.2419 10.5681 17.6875 10.9101C19.5385 12.3636 21.3896 13.8001 23.2406 15.2537C23.5148 15.4589 23.6005 15.7667 23.4977 16.0574C23.3948 16.331 23.1206 16.5362 22.8293 16.502C22.675 16.4849 22.5036 16.4165 22.3836 16.3139C20.1041 14.5354 17.8418 12.7569 15.5794 10.9785C15.4766 10.9272 15.3909 10.8417 15.3052 10.7904Z" fill="white"/>
</svg>
