<svg width="21" height="21" viewBox="0 0 21 21" fill="none" xmlns="http://www.w3.org/2000/svg">
<path d="M19.5006 15.6589L15.6561 13.0947C15.1662 12.7718 14.5131 12.8794 14.1531 13.3396L13.0324 14.7794C12.8877 14.9687 12.6279 15.0243 12.4201 14.9093L12.2086 14.7906C11.5035 14.4046 10.624 13.9259 8.85021 12.1558C7.07638 10.3857 6.59767 9.50618 6.21544 8.79739L6.1004 8.58587C5.98165 8.37806 6.03732 8.11458 6.22657 7.96985L7.66642 6.84915C8.12657 6.48919 8.23419 5.83235 7.91134 5.34622L5.33966 1.49798C5.00939 1.00071 4.34513 0.852276 3.83673 1.16028L2.22989 2.12513C1.72521 2.422 1.35411 2.90442 1.19454 3.46849C0.615636 5.58001 1.04982 9.22044 6.41583 14.5865C10.6834 18.854 13.86 20.0007 16.042 20.0007C16.543 20.0044 17.044 19.9376 17.5301 19.8077C18.0942 19.6482 18.5766 19.2771 18.8734 18.7724L19.842 17.1656C20.15 16.6534 19.9979 15.9892 19.5006 15.6589ZM19.2965 16.8427L18.3317 18.4495C18.1201 18.8132 17.7713 19.0841 17.3668 19.1992C15.4186 19.7335 12.0156 19.2919 6.86486 14.1411C1.71407 8.99036 1.26876 5.58372 1.80314 3.63548C1.91818 3.22728 2.18907 2.88216 2.55275 2.66692L4.15958 1.70208C4.38224 1.56849 4.66798 1.63157 4.81271 1.85052L6.20431 3.94349L7.37325 5.69876C7.51427 5.91028 7.46603 6.19603 7.26564 6.35189L5.82579 7.47259C5.3879 7.80657 5.26173 8.41517 5.53263 8.89388L5.64767 9.10169C6.05216 9.84388 6.55685 10.7679 8.39376 12.6048C10.2307 14.4417 11.1547 14.9464 11.8969 15.3509L12.1047 15.4659C12.5871 15.7368 13.192 15.6107 13.526 15.1728L14.6467 13.7329C14.8026 13.5325 15.0883 13.488 15.2998 13.6253L19.1443 16.1896C19.3633 16.3306 19.4301 16.62 19.2965 16.8427Z" fill="white" stroke="white" stroke-width="0.5"/>
</svg>
