<svg width="25" height="20" viewBox="0 0 25 20" fill="none" xmlns="http://www.w3.org/2000/svg">
<path d="M24.8085 2.36758C23.9266 2.76917 22.9772 3.04075 21.9812 3.16209C22.9983 2.53804 23.7787 1.54851 24.1464 0.369747C23.1941 0.947573 22.1418 1.36794 21.0177 1.59329C20.1217 0.612434 18.8412 -6.10352e-05 17.4241 -6.10352e-05C14.7067 -6.10352e-05 12.5021 2.26068 12.5021 5.04869C12.5021 5.4445 12.5443 5.82876 12.6289 6.19857C8.53659 5.98766 4.90919 3.97972 2.47919 0.921571C2.05517 1.66986 1.81287 2.53804 1.81287 3.46256C1.81287 5.21337 2.68204 6.75906 4.0034 7.6648C3.19762 7.64024 2.43693 7.41056 1.77202 7.03497V7.09709C1.77202 9.54418 3.4695 11.5853 5.72342 12.0476C5.31067 12.1661 4.87538 12.2253 4.42601 12.2253C4.10905 12.2253 3.79914 12.195 3.49909 12.1357C4.12596 14.1408 5.94318 15.6012 8.09849 15.6402C6.41368 16.9952 4.28937 17.8028 1.98333 17.8028C1.58607 17.8028 1.19305 17.7796 0.808472 17.7334C2.98773 19.1635 5.57692 19.9999 8.35628 19.9999C17.4142 19.9999 22.3658 12.3076 22.3658 5.63519C22.3658 5.41561 22.3616 5.19604 22.3531 4.9808C23.3153 4.26863 24.1506 3.38022 24.8085 2.36758Z" fill="#323234"/>
</svg>
